<?xml version="1.0" standalone="no"?>
<!DOCTYPE svg PUBLIC "-//W3C//DTD SVG 20010904//EN"
 "http://www.w3.org/TR/2001/REC-SVG-20010904/DTD/svg10.dtd">
<svg version="1.0" xmlns="http://www.w3.org/2000/svg"
 width="200.000000pt" height="200.000000pt" viewBox="0 0 200.000000 200.000000"
 preserveAspectRatio="xMidYMid meet">
<metadata>
Created by potrace 1.10, written by Peter Selinger 2001-2011
</metadata>
<g transform="translate(0.000000,200.000000) scale(0.100000,-0.100000)"
fill="#000000" stroke="none">
<path d="M1210 1240 c0 -363 -2 -660 -3 -660 -2 0 -19 8 -38 18 -25 13 -57 17
-124 16 -79 0 -98 -4 -157 -31 -114 -53 -211 -162 -233 -261 -33 -152 125
-258 310 -208 121 32 221 108 276 208 l34 63 3 758 3 757 -36 0 -35 0 0 -660z"/>
</g>
</svg>
